<svg width="25" height="25" viewBox="0 0 25 25" fill="none" xmlns="http://www.w3.org/2000/svg">
  <g clip-path="url(#clip0_234_1398)">
    <rect width="25" height="25" rx="12.5" fill="#F0F0F0" />
    <path d="M12.5 0C5.59634 0 0 5.59634 0 12.5C0 19.4037 5.59634 25 12.5 25C19.4037 25 25 19.4037 25 12.5C25 5.59634 19.4037 0 12.5 0ZM17.4998 13.9385H11.7479L14.1759 16.2487C14.7512 16.7953 14.774 17.7069 14.2263 18.2822C13.6785 18.8583 12.7681 18.8812 12.1924 18.3326L6.23579 12.6658C6.19053 12.6225 6.16489 12.5626 6.16489 12.5C6.16489 12.4374 6.19048 12.3775 6.23579 12.3342L12.1925 6.66699C12.7682 6.11885 13.6786 6.14131 14.2263 6.71738C14.7741 7.29307 14.7512 8.2043 14.1759 8.75122L11.7479 11.0611H17.4998C18.2948 11.0611 18.9386 11.7049 18.9386 12.5C18.9386 13.295 18.2948 13.9385 17.4998 13.9385Z" fill="#6290E4" />
  </g>
  <defs>
    <clipPath id="clip0_234_1398">
      <rect width="25" height="25" rx="12.5" fill="white" />
    </clipPath>
  </defs>
</svg>