<svg width="25" height="25" viewBox="0 0 25 25" fill="none" xmlns="http://www.w3.org/2000/svg">
  <g clip-path="url(#clip0_234_1399)">
    <rect width="25" height="25" rx="12.5" transform="matrix(-1 0 0 1 25 0)" fill="#F0F0F0" />
    <path d="M12.5 0C19.4037 0 25 5.59634 25 12.5C25 19.4037 19.4037 25 12.5 25C5.59634 25 0 19.4037 0 12.5C0 5.59634 5.59634 0 12.5 0ZM7.50024 13.9385H13.2521L10.8241 16.2487C10.2488 16.7953 10.226 17.7069 10.7737 18.2822C11.3215 18.8583 12.2319 18.8812 12.8076 18.3326L18.7642 12.6658C18.8095 12.6225 18.8351 12.5626 18.8351 12.5C18.8351 12.4374 18.8095 12.3775 18.7642 12.3342L12.8075 6.66699C12.2318 6.11885 11.3214 6.14131 10.7737 6.71738C10.2259 7.29307 10.2488 8.2043 10.8241 8.75122L13.2521 11.0611H7.5002C6.70518 11.0611 6.06138 11.7049 6.06138 12.5C6.06138 13.295 6.70518 13.9385 7.50024 13.9385Z" fill="#6290E4" />
  </g>
  <defs>
    <clipPath id="clip0_234_1399">
      <rect width="25" height="25" rx="12.5" transform="matrix(-1 0 0 1 25 0)" fill="white" />
    </clipPath>
  </defs>
</svg>