<svg width="100" height="100" viewBox="0 0 100 100" fill="none" xmlns="http://www.w3.org/2000/svg">
  <rect width="100" height="100" rx="50" fill="#6290E4" />
  <path d="M50 20C44.0666 20 38.2664 21.7595 33.3329 25.0559C28.3994 28.3524 24.5543 33.0377 22.2836 38.5195C20.013 44.0013 19.4189 50.0333 20.5765 55.8527C21.734 61.6721 24.5912 67.0176 28.7868 71.2132C32.9824 75.4088 38.3279 78.266 44.1473 79.4235C49.9667 80.5811 55.9987 79.987 61.4805 77.7164C66.9623 75.4457 71.6476 71.6006 74.9441 66.6671C78.2405 61.7336 80 55.9334 80 50C79.9914 42.0461 76.8279 34.4205 71.2037 28.7963C65.5795 23.1721 57.9539 20.0086 50 20ZM50 75C45.0555 75 40.222 73.5338 36.1108 70.7867C31.9995 68.0397 28.7952 64.1352 26.903 59.5671C25.0108 54.9989 24.5158 49.9723 25.4804 45.1227C26.445 40.2732 28.826 35.8186 32.3223 32.3223C35.8187 28.826 40.2732 26.445 45.1228 25.4804C49.9723 24.5157 54.9989 25.0108 59.5671 26.903C64.1352 28.7952 68.0397 31.9995 70.7867 36.1107C73.5338 40.222 75 45.0555 75 50C74.9927 56.6282 72.3565 62.9828 67.6696 67.6696C62.9828 72.3564 56.6282 74.9927 50 75Z" fill="#F0F0F0" />
  <path d="M50.4324 35C49.7514 35 49.0984 35.2609 48.6169 35.7252C48.1354 36.1895 47.8649 36.8193 47.8649 37.476V48.1846L39.2099 53.4139C38.6311 53.7626 38.2196 54.3187 38.066 54.96C37.9124 55.6012 38.0293 56.2751 38.3909 56.8332C38.7524 57.3914 39.3291 57.7882 39.9941 57.9363C40.659 58.0844 41.3578 57.9718 41.9366 57.6231L51.7957 51.6807C52.1682 51.4556 52.4746 51.1421 52.6854 50.7701C52.8962 50.3982 53.0045 49.9802 52.9999 49.5563V37.476C52.9999 36.8193 52.7294 36.1895 52.2479 35.7252C51.7664 35.2609 51.1133 35 50.4324 35Z" fill="#F0F0F0" />
</svg>