<svg width="100" height="100" viewBox="0 0 100 100" fill="none" xmlns="http://www.w3.org/2000/svg">
  <rect width="100" height="100" rx="50" fill="#6290E4" />
  <path d="M21.7578 27.0312H30.6641V21.7578C30.6641 20.787 31.4511 20 32.4219 20H67.5781C68.5489 20 69.3359 20.787 69.3359 21.7578V27.0312H78.2422C79.213 27.0312 80 27.8183 80 28.7891V67.4609C80 68.4317 79.213 69.2188 78.2422 69.2188H58.7891V76.4844H64.0625C65.0333 76.4844 65.8203 77.2714 65.8203 78.2422C65.8203 79.213 65.0333 80 64.0625 80H35.9375C34.9667 80 34.1797 79.213 34.1797 78.2422C34.1797 77.2714 34.9667 76.4844 35.9375 76.4844H41.2109V69.2188H21.7578C20.787 69.2188 20 68.4317 20 67.4609V28.7891C20 27.8183 20.787 27.0312 21.7578 27.0312ZM23.5156 30.5469V58.6719H30.6641V30.5469H23.5156ZM65.8203 23.5156H34.1797V58.6719H65.8203V23.5156ZM69.3359 30.5469V58.6719H76.4844V30.5469H69.3359ZM44.7266 76.4844H55.2734V69.2188H44.7266V76.4844ZM76.4844 65.7031V62.1875H23.5156V65.7031H76.4844Z" fill="#F0F0F0" />
  <path d="M58.2741 35.3054C57.931 35.6488 57.4811 35.8204 57.0312 35.8204C56.5813 35.8204 56.1314 35.6488 55.7883 35.3054L50.5149 30.032C49.8284 29.3455 49.8284 28.2326 50.5149 27.5461C51.2012 26.8596 52.3143 26.8596 53.0008 27.5461L57.0312 31.5767L59.3039 29.304C59.9903 28.6176 61.1033 28.6176 61.7898 29.304C62.4763 29.9905 62.4763 31.1035 61.7898 31.7899L58.2741 35.3054Z" fill="#F0F0F0" />
  <path d="M58.2741 45.8523C57.931 46.1957 57.4811 46.3672 57.0312 46.3672C56.5813 46.3672 56.1314 46.1957 55.7883 45.8523L50.5149 40.5789C49.8284 39.8924 49.8284 38.7795 50.5149 38.093C51.2012 37.4065 52.3143 37.4065 53.0008 38.093L57.0312 42.1235L59.3039 39.8509C59.9903 39.1644 61.1033 39.1644 61.7898 39.8509C62.4763 40.5374 62.4763 41.6503 61.7898 42.3368L58.2741 45.8523Z" fill="#F0F0F0" />
  <path d="M58.2741 56.3992C57.931 56.7426 57.4811 56.9141 57.0312 56.9141C56.5813 56.9141 56.1314 56.7426 55.7883 56.3992L50.5149 51.1258C49.8284 50.4393 49.8284 49.3263 50.5149 48.6399C51.2012 47.9534 52.3143 47.9534 53.0008 48.6399L57.0312 52.6704L59.3039 50.3978C59.9903 49.7113 61.1033 49.7113 61.7898 50.3978C62.4763 51.0843 62.4763 52.1972 61.7898 52.8837L58.2741 56.3992Z" fill="#F0F0F0" />
  <path d="M46.4844 34.0625H39.4531C38.4823 34.0625 37.6953 33.2755 37.6953 32.3047C37.6953 31.3339 38.4823 30.5469 39.4531 30.5469H46.4844C47.4552 30.5469 48.2422 31.3339 48.2422 32.3047C48.2422 33.2755 47.4552 34.0625 46.4844 34.0625Z" fill="#F0F0F0" />
  <path d="M46.4844 44.6094H39.4531C38.4823 44.6094 37.6953 43.8223 37.6953 42.8516C37.6953 41.8808 38.4823 41.0938 39.4531 41.0938H46.4844C47.4552 41.0938 48.2422 41.8808 48.2422 42.8516C48.2422 43.8223 47.4552 44.6094 46.4844 44.6094Z" fill="#F0F0F0" />
  <path d="M46.4844 55.1562H39.4531C38.4823 55.1562 37.6953 54.3692 37.6953 53.3984C37.6953 52.4277 38.4823 51.6406 39.4531 51.6406H46.4844C47.4552 51.6406 48.2422 52.4277 48.2422 53.3984C48.2422 54.3692 47.4552 55.1562 46.4844 55.1562Z" fill="#F0F0F0" />
</svg>