<svg width="100" height="100" viewBox="0 0 100 100" fill="none" xmlns="http://www.w3.org/2000/svg">
  <circle cx="50" cy="50" r="50" fill="#6290E4" />
  <path fill-rule="evenodd" clip-rule="evenodd" d="M55.5716 20C58.8319 20 61.9148 21.5587 63.9478 24.235L72.6619 35.7065C74.1756 37.6992 75 40.1726 75 42.7215V68.75C75 74.9632 70.2031 80 64.2857 80H35.7143C29.7969 80 25 74.9632 25 68.75V31.25C25 25.0368 29.7969 20 35.7143 20H55.5716ZM59.8238 40.625H52.681C51.6948 40.625 50.8953 41.4645 50.8953 42.5V50C50.8953 51.0355 51.6948 51.875 52.681 51.875C53.6672 51.875 54.4667 51.0355 54.4667 50L54.4677 46.8768C56.1318 48.3137 57.1429 50.5 57.1429 52.881C57.1429 57.1388 53.9366 60.575 50 60.575C46.0634 60.575 42.8571 57.1388 42.8571 52.881C42.8571 49.4362 44.9763 46.4458 47.9889 45.4958C48.9334 45.1979 49.4692 44.1524 49.1855 43.1607C48.9018 42.1689 47.9061 41.6064 46.9616 41.9042C42.4391 43.3304 39.2857 47.7803 39.2857 52.881C39.2857 59.1929 44.0744 64.325 50 64.325C55.9256 64.325 60.7143 59.1929 60.7143 52.881C60.7143 49.5736 59.3882 46.5089 57.17 44.3757L59.8238 44.375C60.8101 44.375 61.6096 43.5355 61.6096 42.5C61.6096 41.4645 60.8101 40.625 59.8238 40.625Z" fill="#F0F0F0" />
</svg>