<svg width="100" height="100" viewBox="0 0 100 100" fill="none" xmlns="http://www.w3.org/2000/svg">
  <circle cx="50" cy="50" r="50" fill="#6290E4" />
  <path d="M38 20C36.4087 20 34.8826 20.6321 33.7574 21.7574C32.6321 22.8826 32 24.4087 32 26V54C32 55.5913 32.6321 57.1174 33.7574 58.2426C34.8826 59.3679 36.4087 60 38 60H74C75.5913 60 77.1174 59.3679 78.2426 58.2426C79.3679 57.1174 80 55.5913 80 54V34C80 32.4087 79.3679 30.8826 78.2426 29.7574C77.1174 28.6321 75.5913 28 74 28H58.828L50.828 20H38Z" fill="#F0F0F0" />
  <path d="M68 64H38C35.3478 64 32.8043 62.9464 30.9289 61.0711C29.0536 59.1957 28 56.6522 28 54V40H26C24.4087 40 22.8826 40.6321 21.7574 41.7574C20.6321 42.8826 20 44.4087 20 46V74C20 75.5913 20.6321 77.1174 21.7574 78.2426C22.8826 79.3679 24.4087 80 26 80H62C63.5913 80 65.1174 79.3679 66.2426 78.2426C67.3679 77.1174 68 75.5913 68 74V64Z" fill="#F0F0F0" />
</svg>