<svg width="100" height="100" viewBox="0 0 100 100" fill="none" xmlns="http://www.w3.org/2000/svg">
  <circle cx="50" cy="50" r="50" fill="#6290E4" />
  <path d="M32.5999 50.0002H31.9999C31.7499 52.5501 31.3999 55.6501 27 55.6501H25C23.85 55.6501 23.8 55.5001 23.8 54.6501V41.4002C23.8 40.5502 23.8 40.2002 26.15 40.2002H26.95V39.4502C26 39.5002 23.8 39.5002 22.75 39.5002C21.8 39.5002 19.85 39.5002 19 39.4502V40.2002H19.55C21.45 40.2002 21.5 40.4502 21.5 41.3502V54.4001C21.5 55.3001 21.45 55.5501 19.55 55.5501H19V56.3001H31.8999L32.5999 50.0002Z" fill="#F0F0F0" />
  <path d="M32.1492 39.4C32.0492 39.1 31.9992 39 31.6992 39C31.3992 39 31.2992 39.1 31.1992 39.4L27.1992 49.55C27.0492 49.95 26.7492 50.75 25.1992 50.75V51.3499H29.0492V50.75C28.2992 50.75 27.7992 50.4 27.7992 49.9C27.7992 49.8 27.7992 49.75 27.8492 49.55L28.6992 47.4H33.6492L34.6492 49.95C34.6992 50.05 34.7492 50.15 34.7492 50.25C34.7492 50.75 33.7992 50.75 33.3492 50.75V51.3499H38.2492V50.75H37.8992C36.7492 50.75 36.5992 50.6 36.4492 50.1L32.1492 39.4ZM31.1992 41.2L33.3992 46.85H28.9492L31.1992 41.2Z" fill="#F0F0F0" />
  <path d="M52.0999 39.6001H36.95L36.5 45.1501H37.1C37.45 41.1501 37.8 40.3001 41.6 40.3001C42.05 40.3001 42.7 40.3001 42.95 40.3501C43.45 40.4501 43.45 40.7001 43.45 41.3001V54.35C43.45 55.2 43.45 55.55 40.85 55.55H39.85V56.3C40.85 56.25 43.4 56.25 44.55 56.25C45.7 56.25 48.2499 56.25 49.2999 56.3V55.55H48.2999C45.7 55.55 45.7 55.2 45.7 54.35V41.3501C45.7 40.8501 45.7 40.5001 46.15 40.4001C46.4 40.3501 47.1 40.3501 47.55 40.3501C51.2999 40.3501 51.6499 41.1501 51.9999 45.2001H52.5999L52.0999 39.6001Z" fill="#F0F0F0" />
  <path d="M65.4495 55.6001H64.8495C64.2495 59.4 63.6496 61.25 59.3996 61.25H56.0996C54.9496 61.25 54.8996 61.1 54.8996 60.25V53.6001H57.0996C59.4996 53.6001 59.7996 54.4001 59.7996 56.5H60.3996V49.9501H59.7996C59.7996 52.0501 59.5496 52.8501 57.0996 52.8501H54.8996V46.8501C54.8996 46.0501 54.9496 45.8501 56.0996 45.8501H59.2996C63.0996 45.8501 63.7496 47.2001 64.1496 50.7001H64.7495L64.0496 45.1001H50.0996V45.8501H50.6496C52.5496 45.8501 52.5996 46.1001 52.5996 47.0001V60C52.5996 60.9 52.5496 61.15 50.6496 61.15H50.0996V62H64.3996L65.4495 55.6001Z" fill="#F0F0F0" />
  <path d="M72.9488 46.8002L76.3488 41.8002C76.8488 41.0002 77.6988 40.2002 79.9488 40.2002V39.4502H73.9988V40.2002C74.9988 40.2002 75.5488 40.7502 75.5488 41.3502C75.5488 41.6002 75.4988 41.6502 75.3488 41.9002L72.4988 46.1002L69.2988 41.3002C69.2488 41.2502 69.1488 41.0502 69.1488 40.9502C69.1488 40.6502 69.6988 40.2502 70.7488 40.2002V39.4502C69.8988 39.5002 68.0988 39.5002 67.1488 39.5002C66.3988 39.5002 64.8488 39.5002 63.8988 39.4502V40.2002H64.3488C65.6988 40.2002 66.1988 40.3502 66.6488 41.0502L71.1988 47.9502L67.1488 53.9501C66.7988 54.4501 66.0488 55.6001 63.5488 55.6001V56.3501H69.4988V55.6001C68.3488 55.6001 67.9488 54.9001 67.9488 54.4501C67.9488 54.2501 67.9988 54.1501 68.1988 53.8501L71.6988 48.6502L75.6488 54.6001C75.6988 54.7001 75.7488 54.8001 75.7488 54.8501C75.7488 55.1501 75.1988 55.5501 74.1488 55.6001V56.3501C74.9988 56.3001 76.8488 56.3001 77.7488 56.3001C78.7988 56.3001 79.9488 56.3001 80.9988 56.3501V55.6001H80.5488C79.2488 55.6001 78.7488 55.5001 78.1988 54.7001L72.9488 46.8002Z" fill="#F0F0F0" />
  <path d="M54.176 22C54.409 22.42 54.652 22.78 54.906 23.09C55.153 23.077 56.038 23.546 56.218 23.613C56.726 23.895 57.281 24.243 57.785 24.579C58.29 24.916 58.745 25.241 59.057 25.479C59.213 25.599 59.335 25.697 59.409 25.765C59.4381 25.7892 59.4643 25.8167 59.487 25.847C59.4913 25.8535 59.4947 25.8606 59.497 25.868C59.4995 25.8757 59.5005 25.8838 59.4998 25.8919C59.4991 25.9 59.4968 25.9078 59.493 25.915C59.4891 25.9227 59.4834 25.9294 59.4765 25.9346C59.4695 25.9398 59.4615 25.9434 59.453 25.945C59.4437 25.9467 59.4343 25.9467 59.425 25.945C59.368 25.945 59.222 25.782 58.928 25.53C58.0525 24.8569 57.1305 24.2463 56.169 23.703C55.665 23.423 55.214 23.161 54.906 23.09C54.7868 23.0723 54.6655 23.064 54.545 23.065C54.2772 23.0701 54.0116 23.1149 53.757 23.198C54.251 23.612 54.667 23.914 55.037 24.147C54.467 23.965 53.855 23.937 53.135 24.28C53.661 24.609 54.102 24.847 54.489 25.025C55.592 25.181 56.747 25.721 57.713 26.334C58.196 26.641 58.617 26.949 58.932 27.201C59.089 27.326 59.222 27.438 59.322 27.529C59.42 27.62 59.496 27.683 59.519 27.739C59.549 27.812 59.5 27.843 59.435 27.797C59.403 27.775 59.347 27.695 59.251 27.606C59.1268 27.4926 58.9987 27.3836 58.867 27.279C58.4795 26.9721 58.0759 26.686 57.658 26.422C56.765 25.86 55.426 25.409 54.485 25.025C54.1575 24.9568 53.8195 24.9562 53.4917 25.0232C53.164 25.0903 52.8534 25.2236 52.579 25.415C53.028 25.615 53.416 25.764 53.761 25.878C54.573 25.878 55.653 26.243 56.696 26.8C57.738 27.356 58.736 28.014 59.219 28.574C59.285 28.651 59.203 28.7 59.145 28.644C58.625 28.149 57.682 27.44 56.647 26.888C56.008 26.551 54.494 25.878 53.761 25.878L53.765 25.88C53.198 25.9 52.635 26.075 52.086 26.596C52.563 26.714 52.971 26.792 53.33 26.845C52.89 26.933 52.46 27.145 52.041 27.567C52.365 27.637 52.657 27.689 52.923 27.729C52.5569 27.9107 52.2402 28.1783 52 28.509C52.373 28.539 52.703 28.551 53 28.553C52.64 28.719 52.304 28.983 52.004 29.403C52.537 29.43 52.984 29.428 53.368 29.406C52.946 29.578 52.556 29.87 52.223 30.374C52.885 30.384 53.411 30.352 53.851 30.298L53.845 30.3C54.835 30.227 56.142 30.427 56.807 31.147C56.859 31.204 56.783 31.265 56.735 31.221C56.087 30.641 55.242 30.394 53.845 30.3H53.843C53.3 30.449 52.797 30.746 52.383 31.374C52.919 31.382 53.365 31.361 53.749 31.324C53.28 31.581 52.876 31.968 52.61 32.63C53.093 32.538 53.498 32.44 53.847 32.338C53.484 32.603 53.179 32.974 52.974 33.532C53.298 33.46 53.586 33.386 53.845 33.311C53.5876 33.6289 53.4116 34.0048 53.332 34.406C53.684 34.276 53.987 34.152 54.258 34.029C54.001 34.329 53.805 34.71 53.708 35.219C54.203 35.02 54.607 34.831 54.946 34.651C54.636 34.984 54.403 35.411 54.311 36.007C54.8081 35.7923 55.2899 35.5437 55.753 35.263C55.32 35.625 54.989 36.106 54.874 36.85C55.662 36.502 56.213 36.187 56.641 35.895C56.457 36.267 56.359 36.701 56.406 37.243C57.168 36.659 57.649 36.187 58.008 35.77C57.984 36.039 58.005 36.33 58.085 36.654C58.631 35.715 59.174 35.442 59.735 35.128C58.84 35.579 58.973 35.918 58.973 36.312C59.656 35.592 60.608 34.83 60.9 34.352C60.51 34.937 60.353 35.492 60.25 35.982C58.257 37.036 57.043 37.311 55.682 37.732C56.21 37.926 56.775 38.115 56.541 38.384L55.917 39.006C56.316 38.882 56.722 38.706 57.075 38.947C57.04 39.274 56.628 39.439 56.275 39.63C56.896 39.406 57.031 39.458 57.195 39.51C57.276 39.903 56.992 40.113 56.807 40.372C58.372 39.182 60.413 38.242 61.851 37.85C63.873 37.169 66.481 36.461 67.19 34.735L67.902 31.888L67.898 31.892C67.787 31.858 67.652 31.829 67.548 31.759C67.442 31.6855 67.3602 31.5821 67.313 31.462C67.061 31.527 66.873 31.492 66.753 31.374C66.636 31.257 66.586 31.078 66.55 30.883C66.347 30.924 66.188 30.899 66.083 30.806C65.967 30.705 65.913 30.546 65.885 30.362L65.877 30.323L65.914 30.308C66.0274 30.2658 66.1304 30.1996 66.216 30.114C66.2448 30.0848 66.2661 30.0491 66.2783 30.01C66.2905 29.9709 66.2931 29.9294 66.286 29.889L66.28 29.852L66.31 29.836C66.473 29.743 66.655 29.667 66.738 29.556C66.7606 29.5264 66.777 29.4926 66.7861 29.4565C66.7952 29.4204 66.7969 29.3828 66.791 29.346C66.7666 29.2169 66.7137 29.0949 66.636 28.989L66.609 28.949L66.649 28.922C66.767 28.832 66.893 28.743 66.957 28.662C66.989 28.622 67.005 28.586 67.004 28.552C67.004 28.519 66.989 28.482 66.94 28.435L66.842 28.341L66.977 28.347C67.19 28.357 67.372 28.34 67.515 28.294C67.6263 28.2618 67.723 28.1922 67.789 28.097C67.782 28.064 67.769 28.034 67.769 27.999C67.7747 27.8746 67.8281 27.7571 67.9181 27.6711C68.0082 27.585 68.1279 27.537 68.2525 27.537C68.3771 27.537 68.4968 27.585 68.5869 27.6711C68.6769 27.7571 68.7303 27.8746 68.736 27.999C68.736 28.043 68.721 28.083 68.71 28.124C68.887 28.138 69.057 28.134 69.217 28.064L69.219 28.065L69.254 28.052C69.49 27.967 69.588 28.097 69.974 27.596C68.284 25.406 65.817 26.961 64.997 29.218C64.787 29.794 63.592 29.796 63.246 29.218C61.876 26.268 57.716 23.15 54.176 22ZM55.036 24.145C55.942 24.438 56.949 24.927 57.806 25.473C58.236 25.746 58.619 26.016 58.92 26.252C59.221 26.488 59.486 26.725 59.54 26.827C59.594 26.929 59.54 26.967 59.458 26.887C59.377 26.809 59.155 26.567 58.858 26.334C58.5018 26.0577 58.1327 25.7984 57.752 25.557C56.977 25.067 55.77 24.599 55.036 24.145ZM53.336 26.845C54.452 26.859 55.686 27.292 56.77 27.842C57.254 28.0855 57.7201 28.3628 58.165 28.672C58.537 28.935 58.837 29.196 58.899 29.329C58.96 29.463 58.879 29.459 58.812 29.384C58.6004 29.1507 58.3644 28.9409 58.108 28.758C57.6663 28.4505 57.2035 28.1745 56.723 27.932C55.76 27.45 54.439 27.005 53.336 26.845ZM68.252 27.617C68.202 27.617 68.1524 27.6269 68.1062 27.646C68.06 27.6651 68.018 27.6932 67.9826 27.7286C67.9472 27.764 67.9191 27.806 67.9 27.8522C67.8809 27.8984 67.871 27.948 67.871 27.998C67.871 28.048 67.8809 28.0976 67.9 28.1438C67.9191 28.19 67.9472 28.232 67.9826 28.2674C68.018 28.3028 68.06 28.3309 68.1062 28.35C68.1524 28.3691 68.202 28.379 68.252 28.379C68.353 28.379 68.45 28.3389 68.5214 28.2674C68.5929 28.196 68.633 28.099 68.633 27.998C68.633 27.897 68.5929 27.8 68.5214 27.7286C68.45 27.6571 68.353 27.617 68.252 27.617ZM53.7 27.664C54.522 27.736 55.42 28.032 56.234 28.414C57.32 28.923 58.269 29.572 58.668 30.081C58.703 30.126 58.654 30.212 58.588 30.143C58.16 29.703 57.266 29.012 56.191 28.508C55.278 28.087 53.909 27.638 52.929 27.728C53.18 27.698 53.426 27.64 53.7 27.664ZM70.039 27.674C69.673 28.149 69.509 28.097 69.336 28.138C69.43 28.568 69.686 28.724 69.921 28.908L69.861 28.92C72.176 28.473 74.047 28.634 76 28.684L70.039 27.674ZM69.861 28.92H69.859L69.855 28.936L69.861 28.92ZM69.236 28.163C69.0558 28.2277 68.8627 28.248 68.673 28.222C68.6334 28.2995 68.5733 28.3648 68.4993 28.4106C68.4252 28.4564 68.3401 28.4811 68.253 28.482C68.1616 28.4816 68.0722 28.4552 67.9952 28.406C67.9182 28.3568 67.8568 28.2867 67.818 28.204C67.7459 28.2909 67.651 28.3559 67.544 28.392C67.3836 28.4361 67.2172 28.4546 67.051 28.447C67.071 28.482 67.105 28.515 67.106 28.551C67.1042 28.6153 67.0798 28.6769 67.037 28.725C66.964 28.817 66.848 28.895 66.742 28.973C66.829 29.114 66.879 29.233 66.891 29.335C66.9054 29.4352 66.8803 29.537 66.821 29.619C66.715 29.759 66.533 29.829 66.382 29.912C66.3882 30.0097 66.3559 30.1059 66.292 30.18C66.2074 30.2654 66.1064 30.3327 65.995 30.378C66.022 30.534 66.069 30.661 66.149 30.732C66.235 30.808 66.36 30.835 66.574 30.779L66.629 30.765L66.639 30.82C66.672 31.027 66.727 31.205 66.826 31.303C66.926 31.402 67.07 31.438 67.329 31.358L67.378 31.343L67.394 31.391C67.4289 31.5064 67.5028 31.6061 67.603 31.673C67.69 31.733 67.85 31.785 67.961 31.82C68.759 30.951 69.486 30.048 69.845 28.96C69.62 28.783 69.339 28.622 69.236 28.163ZM53.006 28.549C54.171 28.469 55.289 28.745 56.208 29.175C57.128 29.605 57.866 30.114 58.182 30.482C58.257 30.569 58.163 30.602 58.11 30.554C57.526 30.0332 56.8703 29.5987 56.163 29.264C55.259 28.85 53.97 28.62 53.006 28.549ZM53.87 29.351C54.48 29.371 55.11 29.506 55.676 29.703C56.432 29.965 57.097 30.317 57.423 30.683C57.468 30.733 57.416 30.81 57.349 30.752C57 30.448 56.388 30.059 55.643 29.801C55.069 29.606 54.03 29.432 53.375 29.404C53.572 29.382 53.667 29.344 53.87 29.351ZM54.92 31.139C55.343 31.173 55.806 31.272 56.261 31.546C56.304 31.572 56.31 31.682 56.212 31.636C55.356 31.234 54.886 31.146 53.755 31.326C54.141 31.198 54.495 31.105 54.919 31.139H54.92ZM54.88 31.927C55.28 31.892 55.664 31.925 56.177 32.131C56.221 32.149 56.257 32.257 56.144 32.225C55.287 31.982 54.977 31.897 53.857 32.329C54.1491 32.0939 54.506 31.9536 54.88 31.927ZM56.165 32.614C56.482 32.591 56.8 32.588 57.099 32.62C57.151 32.626 57.154 32.725 57.093 32.722C56.4783 32.6884 55.8617 32.7269 55.256 32.837C55.013 32.883 54.833 32.88 53.851 33.295C54.138 33.062 54.645 32.843 55.236 32.735C55.5437 32.6787 55.8541 32.6386 56.166 32.615L56.165 32.614ZM57.445 33.104C57.544 33.107 57.507 33.208 57.451 33.207C56.723 33.197 56.147 33.339 55.576 33.502C55.1245 33.6449 54.684 33.8203 54.258 34.027C54.541 33.797 54.971 33.57 55.549 33.405C56.128 33.239 56.797 33.079 57.445 33.103V33.104ZM57.973 33.502C58.009 33.497 58.078 33.586 57.991 33.602C57.261 33.739 56.747 33.869 56.197 34.056C55.981 34.13 55.617 34.263 54.954 34.643C55.214 34.374 55.61 34.151 56.167 33.963C56.7543 33.7568 57.3586 33.6029 57.973 33.503V33.502ZM58.284 34.009C58.359 33.997 58.381 34.096 58.304 34.111C57.087 34.352 56.544 34.667 55.764 35.255C56.268 34.732 57.061 34.204 58.284 34.009ZM58.879 34.457C58.966 34.444 58.989 34.544 58.9 34.557C58.028 34.687 57.423 35.11 56.645 35.887C56.94 35.394 57.649 34.647 58.879 34.457ZM59.251 34.847C59.297 34.841 59.365 34.92 59.274 34.947C59.0381 35.0153 58.8129 35.1163 58.605 35.247C58.423 35.365 58.305 35.447 58.008 35.754C58.119 35.509 58.304 35.32 58.55 35.164C58.797 35.007 59.06 34.871 59.251 34.847Z" fill="#F0F0F0" />
</svg>