<svg width="48" height="48" viewBox="0 0 48 48" fill="none" xmlns="http://www.w3.org/2000/svg">
  <rect width="48" height="48" rx="24" fill="#F0F0F0" />
  <path d="M24 0C10.7664 0 0 10.7664 0 24C0 37.2336 10.7664 48 24 48C37.2336 48 48 37.2336 48 24C48 10.7664 37.2337 0 24 0ZM12.2475 35.797C11.9774 35.9799 11.2994 36.1408 10.9027 35.7004L10.1709 34.7799C9.81692 34.1814 10.2456 33.6263 10.5231 33.3961C11.8425 32.3017 12.8019 31.455 13.4006 30.8562C14.5746 29.6215 15.4425 28.3857 16.0155 27.1535C16.1465 26.8718 15.812 26.693 15.6383 26.636C11.3119 25.2181 9.14801 22.7183 9.14801 19.1373C9.14801 17.0273 9.84878 15.3128 11.2496 13.9948C12.651 12.676 14.4065 12.017 16.5156 12.017C18.3946 12.017 20.0596 12.8739 21.5097 14.5882C22.9275 16.203 23.6358 17.9506 23.6358 19.8295C23.636 25.3363 19.84 30.6586 12.2475 35.797ZM28.7133 35.797C28.4432 35.9799 27.7652 36.1408 27.3685 35.7004L26.6367 34.7799C26.2827 34.1814 26.7114 33.6263 26.9889 33.3961C28.3082 32.3017 29.2677 31.455 29.8664 30.8562C31.0404 29.6215 31.9083 28.3857 32.4814 27.1535C32.6124 26.8718 32.278 26.693 32.1043 26.636C27.7779 25.2181 25.614 22.7183 25.614 19.1373C25.614 17.0273 26.3147 15.3128 27.7155 13.9948C29.1171 12.676 30.8724 12.017 32.9816 12.017C34.8605 12.017 36.5255 12.8739 37.9756 14.5882C39.3933 16.203 40.1018 17.9506 40.1018 19.8295C40.1018 25.3363 36.3058 30.6586 28.7133 35.797Z" fill="#6290E4" />
</svg>