<svg width="50" height="50" viewBox="0 0 50 50" fill="none" xmlns="http://www.w3.org/2000/svg">
<rect x="0.5" y="0.5" width="49" height="49" rx="14.5" fill="#6290E4" stroke="#6290E4"/>
<g clip-path="url(#clip0_2945_16894)">
<path d="M14.5125 23.392C14.7622 21.1448 15.7609 19.0225 17.3839 17.3995C19.3814 15.5269 21.8783 14.5281 24.5 14.5281C26.9969 14.5281 29.6186 15.5269 31.6161 17.3995L29.4937 19.5219H35.736V13.2797L33.3639 15.6517C28.495 10.7828 20.505 10.7828 15.6361 15.6517C13.6386 17.6492 12.3902 20.2709 12.0156 23.1423C12.0156 23.6417 12.0156 24.0162 12.0156 24.5156H14.5125C14.5125 24.1411 14.5125 23.7666 14.5125 23.392Z" fill="#F0F0F0"/>
<path d="M34.4875 24.5157C34.4875 27.1374 33.4888 29.7591 31.6161 31.6318C29.6186 33.5044 27.1217 34.5032 24.5 34.5032C21.8783 34.5032 19.3814 33.5044 17.3839 31.6318L19.5063 29.5094H13.264V35.7516L15.6361 33.3796C18.0081 35.7516 21.1292 37.0001 24.5 37.0001C27.8708 37.0001 30.9919 35.7516 33.3639 33.3796C35.7359 31.0075 36.9844 27.7616 36.9844 24.5156H34.4875V24.5157Z" fill="#F0F0F0"/>
</g>
<defs>
<clipPath id="clip0_2945_16894">
<rect width="25" height="25" fill="white" transform="translate(12 12)"/>
</clipPath>
</defs>
</svg>
