<svg width="100" height="100" viewBox="0 0 100 100" fill="none" xmlns="http://www.w3.org/2000/svg">
  <rect width="100" height="100" rx="50" fill="#6290E4" />
  <path d="M25.9999 47.3407C26.5999 41.9475 29 36.8538 32.8999 32.9588C37.6999 28.4644 43.6999 26.0674 49.9999 26.0674C55.9999 26.0674 62.2999 28.4644 67.0999 32.9588L61.9998 38.0524H76.9999V23.0712L71.2999 28.764C59.5999 17.0787 40.4 17.0787 28.7 28.764C23.8999 33.5579 20.9 39.85 20 46.7414C20 47.9399 20 48.8387 20 50.0373H26C25.9999 49.1384 25.9999 48.2396 25.9999 47.3407Z" fill="#F0F0F0" />
  <path d="M74 50.0377C74 56.3298 71.5999 62.6219 67.0999 67.1163C62.3 71.6106 56.3 74.0077 50 74.0077C43.7 74.0077 37.6999 71.6106 32.9 67.1163L38 62.0226H23V77.0039L28.6999 71.3111C34.4 77.0039 41.9 80.0001 50 80.0001C58.0999 80.0001 65.5999 77.0039 71.3 71.3109C76.9999 65.6181 80 57.8279 80 50.0376H74V50.0377Z" fill="#F0F0F0" />
</svg>