<svg width="140" height="40" viewBox="0 0 140 40" fill="none" xmlns="http://www.w3.org/2000/svg">
<path d="M21.7675 10.4668V13.1953H13.4678V28.4347H10.2129V10.4668H21.7675Z" fill="#F5F5F5"/>
<path d="M40.3378 19.6964C40.3378 21.6324 39.9752 23.2906 39.2499 24.6709C38.5305 26.0454 37.5479 27.0982 36.302 27.8293C35.0621 28.5605 33.6554 28.926 32.082 28.926C30.5087 28.926 29.0991 28.5605 27.8533 27.8293C26.6133 27.0924 25.6307 26.0366 24.9054 24.6621C24.186 23.2818 23.8263 21.6266 23.8263 19.6964C23.8263 17.7604 24.186 16.1052 24.9054 14.7307C25.6307 13.3503 26.6133 12.2946 27.8533 11.5635C29.0991 10.8324 30.5087 10.4668 32.082 10.4668C33.6554 10.4668 35.0621 10.8324 36.302 11.5635C37.5479 12.2946 38.5305 13.3503 39.2499 14.7307C39.9752 16.1052 40.3378 17.7604 40.3378 19.6964ZM37.0653 19.6964C37.0653 18.3336 36.8518 17.1843 36.4249 16.2485C36.0038 15.3068 35.4189 14.5961 34.6702 14.1165C33.9215 13.6311 33.0588 13.3883 32.082 13.3883C31.1053 13.3883 30.2426 13.6311 29.4939 14.1165C28.7452 14.5961 28.1574 15.3068 27.7304 16.2485C27.3093 17.1843 27.0988 18.3336 27.0988 19.6964C27.0988 21.0592 27.3093 22.2114 27.7304 23.1531C28.1574 24.089 28.7452 24.7996 29.4939 25.2851C30.2426 25.7647 31.1053 26.0045 32.082 26.0045C33.0588 26.0045 33.9215 25.7647 34.6702 25.2851C35.4189 24.7996 36.0038 24.089 36.4249 23.1531C36.8518 22.2114 37.0653 21.0592 37.0653 19.6964Z" fill="#F5F5F5"/>
<path d="M58.2326 16.7749H54.9514C54.8578 16.2368 54.6852 15.7601 54.4337 15.3448C54.1822 14.9237 53.8693 14.5669 53.495 14.2744C53.1207 13.982 52.6937 13.7627 52.2141 13.6164C51.7403 13.4644 51.2285 13.3883 50.6787 13.3883C49.702 13.3883 48.8363 13.634 48.0818 14.1253C47.3273 14.6108 46.7365 15.3243 46.3096 16.266C45.8826 17.2018 45.6691 18.3453 45.6691 19.6964C45.6691 21.0709 45.8826 22.229 46.3096 23.1707C46.7424 24.1065 47.3331 24.8142 48.0818 25.2938C48.8363 25.7676 49.699 26.0045 50.6699 26.0045C51.208 26.0045 51.7111 25.9343 52.179 25.7939C52.6527 25.6477 53.0768 25.4342 53.4511 25.1535C53.8313 24.8727 54.1501 24.5276 54.4074 24.1182C54.6706 23.7088 54.8519 23.2409 54.9514 22.7145L58.2326 22.732C58.1098 23.5859 57.8437 24.3872 57.4342 25.1359C57.0307 25.8846 56.5013 26.5455 55.8463 27.1187C55.1912 27.686 54.425 28.1306 53.5476 28.4523C52.6703 28.7681 51.6964 28.926 50.6261 28.926C49.0469 28.926 47.6373 28.5605 46.3973 27.8293C45.1573 27.0982 44.1806 26.0425 43.467 24.6621C42.7534 23.2818 42.3966 21.6266 42.3966 19.6964C42.3966 17.7604 42.7563 16.1052 43.4758 14.7307C44.1952 13.3503 45.1749 12.2946 46.4149 11.5635C47.6548 10.8324 49.0586 10.4668 50.6261 10.4668C51.6262 10.4668 52.5562 10.6072 53.416 10.8879C54.2758 11.1687 55.042 11.581 55.7147 12.125C56.3873 12.6631 56.94 13.324 57.3728 14.1078C57.8115 14.8857 58.0981 15.7747 58.2326 16.7749Z" fill="#F5F5F5"/>
<path d="M60.291 13.1953V10.4668H74.6267V13.1953H69.0732V28.4347H65.8446V13.1953H60.291Z" fill="#F5F5F5"/>
<path d="M76.6855 32.7688V25.7764H77.8875C78.2911 25.4547 78.6683 25.0014 79.0193 24.4165C79.3702 23.8316 79.6685 23.0303 79.9142 22.0126C80.1598 20.9949 80.3294 19.6789 80.423 18.0646L80.8968 10.4668H92.3812V25.7764H94.3815V32.7512H91.2582V28.4347H79.8089V32.7688H76.6855ZM81.6776 25.7764H89.2578V13.1953H83.8271L83.5463 18.0646C83.4703 19.287 83.3475 20.3807 83.1779 21.3458C83.0082 22.3109 82.7947 23.1619 82.5374 23.8989C82.28 24.63 81.9934 25.2558 81.6776 25.7764Z" fill="#6290E4"/>
<path d="M112.952 19.6964C112.952 21.6324 112.589 23.2906 111.864 24.6709C111.145 26.0454 110.162 27.0982 108.916 27.8293C107.676 28.5605 106.27 28.926 104.696 28.926C103.123 28.926 101.713 28.5605 100.467 27.8293C99.2274 27.0924 98.2448 26.0366 97.5196 24.6621C96.8001 23.2818 96.4404 21.6266 96.4404 19.6964C96.4404 17.7604 96.8001 16.1052 97.5196 14.7307C98.2448 13.3503 99.2274 12.2946 100.467 11.5635C101.713 10.8324 103.123 10.4668 104.696 10.4668C106.27 10.4668 107.676 10.8324 108.916 11.5635C110.162 12.2946 111.145 13.3503 111.864 14.7307C112.589 16.1052 112.952 17.7604 112.952 19.6964ZM109.679 19.6964C109.679 18.3336 109.466 17.1843 109.039 16.2485C108.618 15.3068 108.033 14.5961 107.284 14.1165C106.536 13.6311 105.673 13.3883 104.696 13.3883C103.719 13.3883 102.857 13.6311 102.108 14.1165C101.359 14.5961 100.772 15.3068 100.345 16.2485C99.9235 17.1843 99.7129 18.3336 99.7129 19.6964C99.7129 21.0592 99.9235 22.2114 100.345 23.1531C100.772 24.089 101.359 24.7996 102.108 25.2851C102.857 25.7647 103.719 26.0045 104.696 26.0045C105.673 26.0045 106.536 25.7647 107.284 25.2851C108.033 24.7996 108.618 24.089 109.039 23.1531C109.466 22.2114 109.679 21.0592 109.679 19.6964Z" fill="#6290E4"/>
<path d="M125.776 28.4347L119.862 20.5825H118.266V28.4347H115.011V10.4668H118.266V17.854H119.082L125.469 10.4668H129.478L122.38 18.6611L129.785 28.4347H125.776Z" fill="#6290E4"/>
</svg>
